<?xml version="1.0" encoding="UTF-8" standalone="no"?>
<svg
   xmlns:dc="http://purl.org/dc/elements/1.1/"
   xmlns:cc="http://creativecommons.org/ns#"
   xmlns:rdf="http://www.w3.org/1999/02/22-rdf-syntax-ns#"
   xmlns:svg="http://www.w3.org/2000/svg"
   xmlns="http://www.w3.org/2000/svg"
   xmlns:sodipodi="http://sodipodi.sourceforge.net/DTD/sodipodi-0.dtd"
   xmlns:inkscape="http://www.inkscape.org/namespaces/inkscape"
   width="83"
   height="30"
   version="1.1"
   id="svg13"
   sodipodi:docname="duniter_button.svg"
   inkscape:version="0.92.2 (5c3e80d, 2017-08-06)">
  <metadata
     id="metadata19">
    <rdf:RDF>
      <cc:Work
         rdf:about="">
        <dc:format>image/svg+xml</dc:format>
        <dc:type
           rdf:resource="http://purl.org/dc/dcmitype/StillImage" />
        <dc:title />
      </cc:Work>
    </rdf:RDF>
  </metadata>
  <defs
     id="defs17">
    <linearGradient
       spreadMethod="pad"
       y2="500"
       x2="250"
       y1="0"
       x1="250"
       gradientUnits="userSpaceOnUse"
       id="gradient-3">
      <stop
         id="stop2270"
         style="stop-color: rgb(247, 191, 44);"
         offset="0" />
      <stop
         id="stop2272"
         style="stop-color: rgb(205, 94, 41);"
         offset="1" />
    </linearGradient>
    <linearGradient
       gradientTransform="matrix(1.0031069,0,0,1.0031069,-0.77669794,-1.4913391)"
       y2="480"
       x2="250"
       y1="20"
       x1="250"
       gradientUnits="userSpaceOnUse"
       id="gradient-1">
      <stop
         id="stop2275"
         offset="0"
         style="stop-color: rgb(255, 253, 90);" />
      <stop
         id="stop2277"
         offset="1"
         style="stop-color: rgb(227, 140, 43);" />
    </linearGradient>
    <linearGradient
       y2="480"
       x2="253.44439697265625"
       y1="238.4842529296875"
       x1="253.44439697265625"
       gradientUnits="userSpaceOnUse"
       id="gradient-4">
      <stop
         id="stop2280"
         offset="0"
         style="stop-color: rgb(247, 192, 40);" />
      <stop
         id="stop2282"
         offset="1"
         style="stop-color: rgb(227, 140, 43);" />
    </linearGradient>
    <radialGradient
       gradientTransform="matrix(1.162644,0,0,1.162643,-41.657313,-42.562499)"
       r="170"
       cy="260.2457580566406"
       cx="255.1620635986328"
       gradientUnits="userSpaceOnUse"
       id="gradient-6">
      <stop
         id="stop2285"
         offset="0"
         style="stop-color: rgb(248, 237, 51);" />
      <stop
         id="stop2287"
         style="stop-color: rgb(248, 237, 51);"
         offset="0.6244" />
      <stop
         id="stop2289"
         style="stop-color: rgb(239, 213, 43);"
         offset="0.7638" />
      <stop
         id="stop2291"
         style="stop-color: rgb(218, 157, 24);"
         offset="0.8931" />
      <stop
         id="stop2293"
         offset="1"
         style="stop-color: rgb(191, 80, 0);" />
    </radialGradient>
    <linearGradient
       gradientTransform="matrix(0.66937615,-0.07372995,0.07372976,0.66937625,391.92343,247.76123)"
       y2="796.8161010742188"
       x2="-277.8105010986328"
       y1="561.8806762695312"
       x1="-277.8105010986328"
       gradientUnits="userSpaceOnUse"
       id="gradient-7">
      <stop
         id="stop2296"
         offset="0"
         style="stop-color: rgb(255, 190, 0);" />
      <stop
         id="stop2298"
         offset="1"
         style="stop-color: rgb(214, 120, 32);" />
    </linearGradient>
    <linearGradient
       gradientTransform="matrix(0.35984243,0.00141991,-8.6511887e-4,0.21927867,-159.19166,375.49385)"
       y2="796.8161010742188"
       x2="-277.8105010986328"
       y1="561.8806762695312"
       x1="-277.8105010986328"
       gradientUnits="userSpaceOnUse"
       id="gradient-7-2">
      <stop
         id="stop2301"
         offset="0"
         style="stop-color: rgb(255, 190, 0);" />
      <stop
         id="stop2303"
         offset="1"
         style="stop-color: rgb(214, 120, 32);" />
    </linearGradient>
    <radialGradient
       gradientTransform="matrix(1.1160329,0,0,1.1160334,24.301594,-88.797561)"
       r="126.30323791503906"
       cy="611.8270263671875"
       cx="-314.4753112792969"
       gradientUnits="userSpaceOnUse"
       id="gradient-12">
      <stop
         id="stop2306"
         offset="0"
         style="stop-color: rgb(255, 237, 49);" />
      <stop
         id="stop2308"
         offset="1"
         style="stop-color: rgba(255, 237, 49, 0);" />
    </radialGradient>
    <radialGradient
       gradientTransform="matrix(3.5442367,3.28146e-7,-1.312584e-6,3.6047993,-1109.6004,-416.64352)"
       r="93"
       cy="196"
       cx="634"
       gradientUnits="userSpaceOnUse"
       id="gradient-16">
      <stop
         id="stop2311"
         offset="0"
         style="stop-color: rgb(255, 255, 255);" />
      <stop
         id="stop2313"
         offset="1"
         style="stop-color: rgba(255, 255, 255, 0);" />
    </radialGradient>
    <radialGradient
       gradientTransform="matrix(0.71262417,3.28146e-7,1.312584e-6,0.72480085,685.64035,147.83616)"
       r="93"
       cy="196"
       cx="634"
       gradientUnits="userSpaceOnUse"
       id="gradient-17">
      <stop
         id="stop2316"
         offset="0"
         style="stop-color: rgb(255, 255, 255);" />
      <stop
         id="stop2318"
         offset="1"
         style="stop-color: rgba(255, 255, 255, 0);" />
    </radialGradient>
    <radialGradient
       gradientTransform="matrix(0.66255763,-0.5531133,1.2298754,1.4732364,-723.61238,-398.22641)"
       r="55.76831817626953"
       cy="510.7113952636719"
       cx="-283.0146484375"
       gradientUnits="userSpaceOnUse"
       id="gradient-20">
      <stop
         id="stop2321"
         offset="0"
         style="stop-color: rgb(255, 237, 49);" />
      <stop
         id="stop2323"
         offset="1"
         style="stop-color: rgba(255, 237, 49, 0);" />
    </radialGradient>
    <linearGradient
       y2="807.1071166992188"
       x2="-272.5911560058594"
       y1="544.911376953125"
       x1="-272.5911560058594"
       gradientUnits="userSpaceOnUse"
       id="gradient-21">
      <stop
         id="stop2326"
         offset="0"
         style="stop-color: rgb(246, 189, 44);" />
      <stop
         id="stop2328"
         offset="1"
         style="stop-color: rgb(191, 144, 26);" />
    </linearGradient>
    <linearGradient
       y2="577.36083984375"
       x2="-254.775146484375"
       y1="499.4190673828125"
       x1="-254.775146484375"
       gradientUnits="userSpaceOnUse"
       id="gradient-22">
      <stop
         id="stop2331"
         offset="0"
         style="stop-color: rgb(246, 189, 44);" />
      <stop
         id="stop2333"
         offset="1"
         style="stop-color: rgb(191, 144, 26);" />
    </linearGradient>
    <style
       id="bx-google-fonts">@import url(https://fonts.googleapis.com/css?family=Open+Sans:300,300italic,400,400italic,600,600italic,700,700italic,800,800italic);</style>
  </defs>
  <sodipodi:namedview
     pagecolor="#ffffff"
     bordercolor="#666666"
     borderopacity="1"
     objecttolerance="10"
     gridtolerance="10"
     guidetolerance="10"
     inkscape:pageopacity="0"
     inkscape:pageshadow="2"
     inkscape:window-width="3200"
     inkscape:window-height="1671"
     id="namedview15"
     showgrid="false"
     inkscape:zoom="17.68"
     inkscape:cx="61.836969"
     inkscape:cy="13.374801"
     inkscape:window-x="0"
     inkscape:window-y="55"
     inkscape:window-maximized="1"
     inkscape:current-layer="svg13" />
  <rect
     id="back"
     x="1"
     y=".5"
     width="82"
     height="29"
     rx="4"
     style="fill:#fbc14c;fill-opacity:1"
     fill="#f6c915" />
  <text
     font-weight="700"
     font-size="14"
     x="51.016949"
     y="18.601694"
     id="text11"
     style="font-weight:700;font-size:10.26666737px;font-family:'Helvetica Neue', Helvetica, Arial, sans-serif;text-anchor:middle;fill:#171b1a;fill-opacity:1">
    <tspan
       style="font-size:10.26666737px;fill:#171b1a;fill-opacity:1"
       id="tspan4138" />
  </text>
  <g
     inkscape:groupmode="layer"
     id="layer1"
     inkscape:label="duniter logo" />
  <text
     xml:space="preserve"
     style="font-style:normal;font-weight:normal;font-size:40px;line-height:1.25;font-family:sans-serif;letter-spacing:0px;word-spacing:0px;fill:#000000;fill-opacity:1;stroke:none"
     x="30.735554"
     y="17.697023"
     id="text889"><tspan
       sodipodi:role="line"
       id="tspan887"
       x="30.735554"
       y="17.697023"
       style="font-style:normal;font-variant:normal;font-weight:normal;font-stretch:normal;font-size:12px;font-family:'Nimbus Roman';-inkscape-font-specification:'Nimbus Roman, '">Akceptita</tspan></text>
  <g
     id="g493"
     transform="matrix(0.04812695,0,0,0.04658906,4.3110768,2.4556547)">
    <circle
       id="ellipse2339"
       style="fill:url(#gradient-3)"
       cy="250"
       cx="250"
       r="250" />
    <circle
       id="ellipse2341"
       style="fill:url(#gradient-1)"
       cy="250"
       cx="250"
       r="230" />
    <path
       id="path2343"
       d="M 50.81416,365 C 91.8997,436.16226 167.82892,480 250,480 c 138.41109,0 236.24639,-117.13225 230.06604,-241.51574 -80.0411,33.05709 -176.08731,52.67754 -282.62671,52.67754 -61.19342,0 -120.87589,-6.87343 -176.79694,-19.77869 2.96218,31.51932 12.67787,63.31656 30.17177,93.61688 z"
       style="fill:url(#gradient-4)"
       inkscape:connector-curvature="0" />
    <circle
       id="ellipse2345"
       style="fill:url(#gradient-6);fill-opacity:1"
       cy="250"
       cx="250"
       r="170" />
    <g
       style="display:none"
       id="one">
      <path
         id="path2347"
         style="white-space:pre;fill:#f0d02d"
         d="m 268.376,322.769 h -19.78 l -8.13,-39.881 c 0,-4.633 8.23,-7.162 8.43,-11.009 -1.22,1.473 -2.733,3.017 -4.54,4.63 l -8.19,6.76 -10.11,-12.43 -6.676,-36.237 44.7,-19.446 4.296,35.513 z"
         inkscape:connector-curvature="0" />
      <text
         id="text2349"
         style="font-weight:800;font-size:101px;font-family:'Open Sans';white-space:pre;fill:#bf5000"
         y="287.76901"
         x="217.916">1</text>
      <text
         id="text2351"
         style="font-weight:800;font-size:101px;font-family:'Open Sans';white-space:pre;fill:#fcb902"
         y="283.76901"
         x="212.916">1</text>
      <path
         id="path2353"
         style="fill:#ffffff"
         d="m 216.982,231.935 2.377,3.113 23.247,-22.124 12.827,-1.153 -13.568,0.053 z"
         inkscape:connector-curvature="0" />
    </g>
    <g
       id="glibre">
      <g
         transform="matrix(0.84148449,0,0,0.84148449,466.0224,-317.18527)"
         id="macron">
        <path
           id="path2356"
           transform="translate(0,-23.767521)"
           style="fill:url(#gradient-22);fill-opacity:0.49000005"
           d="m -198.07892,530.14407 3.80603,15.74613 c -11.86247,15.18658 -24.90822,22.94709 -46.75735,24.84668 -22.52597,1.95843 -49.65885,-0.97058 -65.72754,-22.85694 -3.36661,-17.67205 -4.61502,-25.11914 -4.61502,-25.11914 0,0 44.67628,4.29077 58.92022,2.7218 11.62275,-1.28021 48.11332,12.8046 54.37366,4.66147 z"
           class="shadow"
           inkscape:connector-curvature="0" />
        <path
           id="path2358"
           transform="translate(2.3767517,-15.448884)"
           style="fill:#bf5000"
           d="m -202.5963,516.26706 2.38153,5.94125 c -10.93431,13.99836 -27.30534,24.05487 -47.39934,26.26813 -24.87689,2.74011 -49.32586,-7.99963 -64.13729,-28.17352 -1.77341,-4.4682 -2.36097,-5.88346 -2.36097,-5.88346 0,0 49.74701,2.6218 62.87645,1.17563 10.71334,-1.18005 42.8691,8.17795 48.63962,0.67197 z"
           class="depth"
           inkscape:connector-curvature="0" />
        <path
           id="path2360"
           transform="translate(8.7228955e-8,-21.390767)"
           style="fill:url(#gradient-7-2)"
           d="m -226.04393,501.50464 25.82916,20.70367 c -10.93431,13.99836 -27.30534,24.05487 -47.39934,26.26813 -24.87689,2.74011 -49.32586,-7.99963 -64.13729,-28.17352 13.94854,-10.58228 11.24874,-8.25812 26.66534,-19.57721 7.81708,10.64737 20.7207,16.31555 33.85014,14.86938 10.71334,-1.18005 19.42147,-6.58447 25.19199,-14.09045 z"
           class="main"
           inkscape:connector-curvature="0" />
        <path
           id="path2362"
           transform="translate(0,-21.390769)"
           style="fill:url(#gradient-20)"
           d="m -226.04393,501.50464 25.82916,20.70367 c -10.93431,13.99836 -27.30534,24.05487 -47.39934,26.26813 -24.87689,2.74011 -43.5169,-11.54956 -58.32833,-31.72345 13.94854,-10.58227 5.43978,-4.70819 20.85638,-16.02728 7.81708,10.64737 20.7207,16.31555 33.85014,14.86938 10.71334,-1.18005 19.42147,-6.58447 25.19199,-14.09045 z"
           class="gold-layer"
           inkscape:connector-curvature="0" />
        <path
           id="path2364"
           style="fill:#ffffff;stroke:none"
           d="m -284.84729,479.96442 c 20.48019,19.94711 44.83089,14.61715 58.79187,0.21222 0.40973,0.32516 2.63264,1.97537 3.19334,2.47686 -18.5749,14.67405 -44.44908,19.87809 -61.98521,-2.68908 z"
           class="edge"
           inkscape:connector-curvature="0" />
      </g>
      <g
         transform="matrix(0.84148449,0,0,0.84148449,466.0224,-317.18527)"
         id="G">
        <path
           id="path2367"
           transform="translate(13.072136,46.346657)"
           style="fill:url(#gradient-21);fill-opacity:0.5"
           d="m -231.25119,697.46716 85.81541,-42.9317 5.95536,43.96094 v 93.82934 l -24.37015,-24.37017 c -23.2079,23.79895 -55.72147,39.15155 -93.55333,39.15155 -46.83679,0 -90.11575,-24.98725 -113.53412,-65.54901 -14.07382,-24.37659 -22.91794,-68.66822 -26.32745,-94.57392 -8.43643,-64.10046 67.08999,-102.07281 139.86157,-102.07281 21.04308,0 105.58739,20.43414 105.58739,20.43414 0,0 3.95663,18.6994 6.10644,44.10089 l -53.99421,29.50794 c -12.69413,-19.6886 -34.11907,-32.13569 -57.69962,-32.13569 -53.26288,0 -86.55215,57.65876 -59.92062,103.78577 12.35958,21.40772 35.20123,34.5954 59.92062,34.5954 20.17047,0 39.53506,-10.15588 51.80716,-22.93591 z"
           class="G shadow"
           inkscape:connector-curvature="0" />
        <path
           id="path2369"
           transform="translate(7.1302561,2.3767521)"
           style="fill:#bf5000"
           d="m -231.25119,697.46716 85.89738,-5.4895 5.87339,6.51874 v 93.82934 l -24.37015,-24.37017 c -23.2079,23.79895 -55.72147,39.15155 -93.55333,39.15155 -46.83679,0 -90.11575,-24.98725 -113.53412,-65.54901 -50.45959,-87.39863 12.61484,-196.64673 113.53412,-196.64673 46.35875,0 88.11485,24.70294 111.69383,64.53503 l -53.99421,29.50794 c -12.69413,-19.6886 -34.11907,-32.13569 -57.69962,-32.13569 -53.26288,0 -86.55215,57.65876 -59.92062,103.78577 12.35958,21.40772 35.20123,34.5954 59.92062,34.5954 20.17047,0 39.53506,-10.15588 51.80716,-22.93591 z"
           class="G depth"
           inkscape:connector-curvature="0" />
        <path
           id="path2371"
           transform="translate(7.1302561,2.3767521)"
           style="fill:url(#gradient-7)"
           d="m -238.61481,691.86505 h 93.82932 v 93.82935 l -24.37015,-24.37018 c -23.2079,23.79895 -55.72147,39.15155 -93.55331,39.15155 -46.83683,0 -90.11579,-24.98724 -113.53415,-65.54901 -50.4596,-87.39862 12.61487,-196.64667 113.53415,-196.64667 46.35873,0 89.23176,24.47955 112.81076,64.31165 l -54.66439,29.28448 c -12.69412,-19.6886 -34.56584,-31.6889 -58.14637,-31.6889 -53.26288,0 -86.55216,57.65875 -59.92066,103.78576 12.35962,21.40772 35.20123,34.5954 59.92066,34.5954 20.17045,0 37.47648,-8.26886 49.74858,-21.04901 z"
           class="G main"
           inkscape:connector-curvature="0" />
        <path
           id="path2373"
           transform="translate(7.1302561,2.3767521)"
           style="fill:url(#gradient-12);fill-opacity:1"
           d="m -332.62003,704.97211 c 12.47059,21.34338 -11.21331,66.02069 -34.63168,25.45886 -50.45962,-87.39856 4.62247,-185.15765 105.54178,-185.15765 46.35875,0 76.74373,15.98773 100.32272,55.81982 l -40.17823,19.79358 c -12.69414,-19.6886 -36.06441,-31.68891 -59.64495,-31.68891 -53.26288,0 -106.53311,55.66059 -71.40964,115.7743 z"
           class="G gold-layer"
           inkscape:connector-curvature="0" />
      </g>
      <path
         transform="translate(6,2)"
         style="fill:#ffffff;fill-opacity:1;stroke:none"
         d="m 340.36426,189.54131 c -1.51157,0.98698 -2.19312,1.28341 -3.88379,2.14946 -39.40723,-82.98298 -187.09882,-73.15087 -200.89398,41.81828 4.67341,-115.364 165.02862,-133.886209 204.77777,-43.96774 z"
         class="edge"
         id="top"
         inkscape:connector-curvature="0" />
      <path
         transform="translate(6,2)"
         style="fill:#ffffff;stroke:none"
         d="m 270.39145,270.06113 -5.74112,-5.76795 79.10782,0.77368 z"
         class="edge"
         id="arrow"
         inkscape:connector-curvature="0" />
      <path
         transform="translate(6,2)"
         style="fill:#ffffff;fill-opacity:0.75;stroke:none"
         d="m 189.16269,262.59613 c 17.67953,51.88998 75.02722,48.99045 97.12546,23.55661 2.62506,2.96991 2.28537,2.50015 4.88644,5.5343 -20.0368,18.50656 -88.09932,36.83081 -102.0119,-29.09091 z"
         class="edge"
         id="bottom"
         inkscape:connector-curvature="0" />
    </g>
    <path
       id="path2380"
       style="fill:#ffffff;stroke:none"
       d="m 184.66301,27.768147 c 197.84944,-59.345536 278.15364,133.077843 278.15364,133.077843 0,0 -87.35724,-183.957534 -275.38721,-127.555121 C -23.948291,96.696798 28.414448,313.23022 28.414448,313.23022 c 0,0 -59.010027,-220.894612 156.248562,-285.462073 z"
       inkscape:connector-curvature="0" />
    <path
       id="path2382"
       style="fill:#ffffff;stroke:none"
       d="M 285.81018,418.16293 C 127.41356,451.46023 86.582764,294.88156 86.582764,294.88156 c 0,0 47.925336,149.20783 197.868926,118.42978 160.1263,-32.86819 131.70914,-199.73552 131.70914,-199.73552 0,0 36.63156,169.485 -130.35065,204.58711 z"
       inkscape:connector-curvature="0" />
    <path
       inkscape:connector-curvature="0"
       d="m 15299.521,23709.009 c 30.718,3.272 62.151,4.96 93.987,4.96 138.476,0 259.43,-30.088 351.04,-78.081 -4.289,-11.025 -9.507,-21.94 -15.701,-32.668 -41.086,-71.162 -117.015,-115 -199.186,-115 -130.691,0 -225.206,104.43 -230.14,220.789 z"
       style="fill:#ffffff;fill-opacity:0.2"
       id="gloss" />
    <g
       transform="matrix(0.22259252,0.07340797,-0.07340797,0.22259252,1.9083288,-11.577785)"
       id="flare">
      <ellipse
         id="ellipse2385"
         style="fill:#ffffff;fill-opacity:0.75"
         ry="11.957642"
         rx="439.82751"
         cy="300.57922"
         cx="1134.4586" />
      <ellipse
         id="ellipse2387"
         style="fill:#ffffff;fill-opacity:0.75"
         ry="8.5529785"
         rx="439.82751"
         cy="1023.5076"
         cx="1736.2711"
         transform="rotate(90,1796.829,361.13727)" />
      <ellipse
         id="ellipse2389"
         style="fill:#ffffff;fill-opacity:0.75;stroke-width:2.09441996"
         ry="6.3677368"
         rx="120.34143"
         cy="761.99774"
         cx="475.06232"
         transform="matrix(0.70312,0.71107,-0.71106,0.70313,1342.256,-573.00401)" />
      <ellipse
         id="ellipse2391"
         style="fill:#ffffff;fill-opacity:0.75;stroke-width:2.09441996"
         ry="4.9006958"
         rx="120.34143"
         cy="586.4455"
         cx="475.06232"
         transform="matrix(-0.71107,0.70312,-0.7031,-0.71108,1884.5915,383.55909)" />
      <ellipse
         id="ellipse2393"
         style="fill:url(#gradient-16);fill-opacity:0.75"
         ry="306.40793"
         rx="329.61401"
         cy="289.89743"
         cx="1137.4437" />
      <ellipse
         id="ellipse2395"
         style="fill:url(#gradient-17);fill-opacity:0.75"
         ry="61.60817"
         rx="66.27417"
         cy="289.89743"
         cx="1137.4441" />
    </g>
    <g
       id="g2404"
       transform="translate(197.24052,177.32683)">
      <ellipse
         id="ellipse2398"
         style="fill:#ffffff"
         transform="matrix(1,0,0,0.999999,0,24.861622)"
         ry="15.396"
         rx="16.947001"
         cy="250.524"
         cx="54.938" />
      <ellipse
         id="ellipse2400"
         style="fill:#bf5000"
         transform="translate(0,24.860675)"
         ry="15.396"
         rx="16.947001"
         cy="243.19501"
         cx="52.807999" />
      <ellipse
         id="ellipse2402"
         style="fill:#f1af29"
         ry="15.396"
         rx="16.947001"
         cy="272.24399"
         cx="53.952" />
    </g>
  </g>
</svg>
